<svg xmlns="http://www.w3.org/2000/svg" xmlns:xlink="http://www.w3.org/1999/xlink" width="1200" zoomAndPan="magnify" viewBox="0 0 900 225" height="300" preserveAspectRatio="xMidYMid meet" version="1.0"><defs><g/><clipPath id="4736914c75"><path d="M 134.125 6.03125 L 347 6.03125 L 347 219 L 134.125 219 Z M 134.125 6.03125 " clip-rule="nonzero"/></clipPath><clipPath id="6615ccc418"><rect x="0" width="386" y="0" height="178"/></clipPath><clipPath id="1e47e6bf08"><rect x="0" width="230" y="0" height="50"/></clipPath></defs><path fill="#1d3f68" d="M 191.53125 98.09375 C 183.605469 98.09375 177.15625 104.539062 177.15625 112.464844 C 177.15625 120.390625 183.605469 126.839844 191.53125 126.839844 L 217.902344 126.839844 C 221.960938 126.839844 225.25 130.128906 225.25 134.191406 L 225.25 160.558594 C 225.25 168.484375 231.699219 174.933594 239.625 174.933594 C 247.550781 174.933594 254 168.484375 254 160.558594 L 254 134.191406 C 254 130.128906 257.289062 126.839844 261.347656 126.839844 L 287.71875 126.839844 C 295.644531 126.839844 302.089844 120.390625 302.089844 112.464844 C 302.089844 104.539062 295.644531 98.09375 287.71875 98.09375 L 261.347656 98.09375 C 257.289062 98.09375 254 94.800781 254 90.742188 L 254 64.371094 C 254 56.445312 247.550781 50 239.625 50 C 231.699219 50 225.25 56.445312 225.25 64.371094 L 225.25 90.742188 C 225.25 94.800781 221.960938 98.09375 217.902344 98.09375 Z M 239.625 189.632812 C 223.59375 189.632812 210.550781 176.589844 210.550781 160.558594 L 210.550781 141.539062 L 191.53125 141.539062 C 175.5 141.539062 162.457031 128.5 162.457031 112.464844 C 162.457031 96.4375 175.5 83.394531 191.53125 83.394531 L 210.550781 83.394531 L 210.550781 64.371094 C 210.550781 48.339844 223.59375 35.300781 239.625 35.300781 C 255.652344 35.300781 268.695312 48.339844 268.695312 64.371094 L 268.695312 83.394531 L 287.71875 83.394531 C 303.746094 83.394531 316.789062 96.4375 316.789062 112.464844 C 316.789062 128.5 303.746094 141.539062 287.71875 141.539062 L 268.695312 141.539062 L 268.695312 160.558594 C 268.695312 176.589844 255.652344 189.632812 239.625 189.632812 " fill-opacity="1" fill-rule="nonzero"/><g clip-path="url(#4736914c75)"><path fill="#1d3f68" d="M 322.378906 40.667969 Z M 320.183594 37.910156 Z M 318.519531 41.492188 C 321.152344 44.800781 320.601562 49.632812 317.292969 52.265625 C 313.984375 54.898438 309.152344 54.347656 306.519531 51.039062 C 303.886719 47.730469 304.4375 42.898438 307.746094 40.265625 C 311.054688 37.632812 315.882812 38.183594 318.519531 41.492188 Z M 336.554688 131.347656 C 329.660156 129.511719 322.582031 133.617188 320.75 140.511719 C 319.90625 143.6875 320.332031 146.898438 321.703125 149.625 C 307.316406 181.136719 275.820312 201.714844 240.535156 201.714844 C 191.324219 201.714844 151.285156 161.679688 151.285156 112.464844 C 151.285156 63.253906 191.324219 23.21875 240.535156 23.21875 C 261.65625 23.21875 282.042969 30.761719 298.042969 44.230469 C 297.503906 48.070312 298.464844 52.113281 301.066406 55.382812 C 306.09375 61.695312 315.320312 62.746094 321.636719 57.71875 C 327.949219 52.695312 328.996094 43.464844 323.972656 37.148438 C 320.527344 32.820312 315.105469 30.96875 310 31.851562 C 290.792969 15.320312 266.113281 6.035156 240.535156 6.035156 C 181.847656 6.035156 134.101562 53.777344 134.101562 112.464844 C 134.101562 171.152344 181.847656 218.898438 240.535156 218.898438 C 282.917969 218.898438 320.707031 193.996094 337.691406 155.949219 C 341.503906 154.542969 344.597656 151.375 345.722656 147.148438 C 347.554688 140.253906 343.449219 133.175781 336.554688 131.347656 " fill-opacity="1" fill-rule="nonzero"/></g><path fill="#1d3f68" d="M 300.402344 54.550781 L 300.367188 54.507812 L 300.402344 54.550781 " fill-opacity="1" fill-rule="nonzero"/><path fill="#1d3f68" d="M 300.820312 55.070312 C 300.664062 54.878906 300.523438 54.703125 300.402344 54.550781 C 300.535156 54.714844 300.675781 54.890625 300.820312 55.070312 " fill-opacity="1" fill-rule="nonzero"/><path fill="#1d3f68" d="M 300.367188 54.507812 C 299.9375 53.964844 299.714844 53.683594 299.644531 53.597656 C 299.730469 53.707031 300.011719 54.058594 300.367188 54.507812 " fill-opacity="1" fill-rule="nonzero"/><path fill="#1d3f68" d="M 302.390625 57.046875 C 302.207031 56.8125 301.800781 56.304688 301.066406 55.382812 C 300.984375 55.277344 300.917969 55.195312 300.84375 55.101562 C 301.457031 55.871094 302.117188 56.707031 302.390625 57.046875 " fill-opacity="1" fill-rule="nonzero"/><path fill="#1d3f68" d="M 302.390625 57.046875 C 302.433594 57.101562 302.464844 57.140625 302.484375 57.167969 C 302.464844 57.140625 302.433594 57.101562 302.390625 57.046875 " fill-opacity="1" fill-rule="nonzero"/><path fill="#1d3f68" d="M 300.84375 55.101562 L 300.820312 55.070312 L 300.84375 55.101562 " fill-opacity="1" fill-rule="nonzero"/><g transform="matrix(1, 0, 0, 1, 364, -0.000000000000008531)"><g clip-path="url(#6615ccc418)"><g fill="#1d3f68" fill-opacity="1"><g transform="translate(1.667297, 137.60479)"><g><path d="M 41.3125 -95.90625 C 46.144531 -95.90625 50.769531 -95.023438 55.1875 -93.265625 C 59.613281 -91.503906 63.484375 -89.039062 66.796875 -85.875 C 70.117188 -82.707031 72.785156 -78.960938 74.796875 -74.640625 C 76.804688 -70.316406 77.8125 -65.644531 77.8125 -60.625 L 77.8125 -9.796875 C 77.8125 -7.179688 76.878906 -4.921875 75.015625 -3.015625 C 73.160156 -1.109375 70.875 -0.101562 68.15625 0 C 65.445312 0 63.109375 -0.878906 61.140625 -2.640625 C 59.179688 -4.398438 58.203125 -6.632812 58.203125 -9.34375 L 58.203125 -59.40625 C 58.203125 -61.71875 57.773438 -63.90625 56.921875 -65.96875 C 56.066406 -68.03125 54.859375 -69.816406 53.296875 -71.328125 C 51.742188 -72.835938 49.9375 -74.039062 47.875 -74.9375 C 45.8125 -75.84375 43.578125 -76.296875 41.171875 -76.296875 C 38.953125 -76.296875 36.835938 -75.867188 34.828125 -75.015625 C 32.816406 -74.160156 31.054688 -73.03125 29.546875 -71.625 C 28.046875 -70.21875 26.84375 -68.507812 25.9375 -66.5 C 25.03125 -64.488281 24.578125 -62.378906 24.578125 -60.171875 L 24.578125 -9.796875 C 24.578125 -7.179688 23.570312 -4.894531 21.5625 -2.9375 C 19.550781 -0.976562 17.238281 0 14.625 0 C 12.007812 0 9.695312 -0.898438 7.6875 -2.703125 C 5.675781 -4.515625 4.671875 -6.726562 4.671875 -9.34375 L 4.671875 -59.40625 C 4.773438 -64.4375 5.753906 -69.160156 7.609375 -73.578125 C 9.472656 -78.003906 12.035156 -81.875 15.296875 -85.1875 C 18.566406 -88.507812 22.414062 -91.125 26.84375 -93.03125 C 31.269531 -94.945312 36.09375 -95.90625 41.3125 -95.90625 Z M 41.3125 -95.90625 "/></g></g></g><g fill="#1d3f68" fill-opacity="1"><g transform="translate(84.146615, 137.60479)"><g><path d="M 14.171875 -73.140625 C 16.785156 -73.140625 19.097656 -72.15625 21.109375 -70.1875 C 23.117188 -68.226562 24.125 -65.84375 24.125 -63.03125 L 24.125 -36.5 C 24.125 -34.1875 24.578125 -32 25.484375 -29.9375 C 26.390625 -27.875 27.59375 -26.085938 29.09375 -24.578125 C 30.601562 -23.066406 32.390625 -21.859375 34.453125 -20.953125 C 36.515625 -20.054688 38.703125 -19.609375 41.015625 -19.609375 C 43.222656 -19.609375 45.332031 -20.007812 47.34375 -20.8125 C 49.351562 -21.613281 51.140625 -22.71875 52.703125 -24.125 C 54.265625 -25.53125 55.492188 -27.238281 56.390625 -29.25 C 57.296875 -31.257812 57.75 -33.421875 57.75 -35.734375 L 57.75 -63.1875 C 57.75 -65.695312 58.703125 -67.957031 60.609375 -69.96875 C 62.523438 -71.976562 64.84375 -73.035156 67.5625 -73.140625 C 70.269531 -73.140625 72.601562 -72.15625 74.5625 -70.1875 C 76.53125 -68.226562 77.5625 -66.046875 77.65625 -63.640625 L 77.65625 -36.5 C 77.65625 -31.46875 76.703125 -26.738281 74.796875 -22.3125 C 72.890625 -17.894531 70.273438 -14.023438 66.953125 -10.703125 C 63.640625 -7.390625 59.769531 -4.773438 55.34375 -2.859375 C 50.914062 -0.953125 46.140625 0 41.015625 0 C 36.191406 0.195312 31.566406 -0.628906 27.140625 -2.484375 C 22.722656 -4.347656 18.828125 -6.910156 15.453125 -10.171875 C 12.085938 -13.441406 9.398438 -17.265625 7.390625 -21.640625 C 5.378906 -26.015625 4.375 -30.613281 4.375 -35.4375 L 4.375 -63.1875 C 4.375 -65.800781 5.300781 -68.085938 7.15625 -70.046875 C 9.019531 -72.003906 11.359375 -73.035156 14.171875 -73.140625 Z M 14.171875 -73.140625 "/></g></g></g><g fill="#1d3f68" fill-opacity="1"><g transform="translate(166.173565, 137.60479)"><g><path d="M 53.6875 -73.28125 C 56.394531 -73.28125 58.65625 -72.25 60.46875 -70.1875 C 62.28125 -68.132812 63.1875 -65.953125 63.1875 -63.640625 C 63.1875 -61.023438 62.203125 -58.734375 60.234375 -56.765625 C 58.273438 -54.804688 56.09375 -53.828125 53.6875 -53.828125 L 27.75 -53.828125 C 26.539062 -53.828125 25.507812 -53.472656 24.65625 -52.765625 C 23.800781 -52.066406 23.375 -51.066406 23.375 -49.765625 C 23.375 -48.359375 23.800781 -47.273438 24.65625 -46.515625 C 25.507812 -45.765625 26.539062 -45.390625 27.75 -45.390625 L 44.78125 -45.390625 C 47.90625 -45.390625 50.796875 -44.734375 53.453125 -43.421875 C 56.117188 -42.117188 58.429688 -40.382812 60.390625 -38.21875 C 62.347656 -36.0625 63.878906 -33.773438 64.984375 -31.359375 C 66.097656 -28.953125 66.65625 -26.238281 66.65625 -23.21875 C 66.75 -19.90625 66.164062 -16.789062 64.90625 -13.875 C 63.65625 -10.957031 61.972656 -8.492188 59.859375 -6.484375 C 57.753906 -4.472656 55.289062 -2.890625 52.46875 -1.734375 C 49.65625 -0.578125 46.492188 0 42.984375 0 L 15.234375 0 C 12.617188 0 10.351562 -0.898438 8.4375 -2.703125 C 6.53125 -4.515625 5.578125 -6.78125 5.578125 -9.5 C 5.578125 -12.007812 6.484375 -14.296875 8.296875 -16.359375 C 10.109375 -18.421875 12.316406 -19.503906 14.921875 -19.609375 L 42.671875 -19.609375 C 45.390625 -19.609375 46.75 -20.8125 46.75 -23.21875 C 46.75 -25.9375 45.390625 -27.296875 42.671875 -27.296875 L 26.09375 -27.296875 C 23.070312 -27.296875 20.226562 -27.921875 17.5625 -29.171875 C 14.90625 -30.429688 12.59375 -32.164062 10.625 -34.375 C 8.664062 -36.59375 7.132812 -39.007812 6.03125 -41.625 C 4.925781 -44.238281 4.375 -47.050781 4.375 -50.0625 C 4.375 -53.082031 4.953125 -56 6.109375 -58.8125 C 7.265625 -61.625 8.847656 -64.082031 10.859375 -66.1875 C 12.867188 -68.300781 15.226562 -69.988281 17.9375 -71.25 C 20.65625 -72.507812 23.625 -73.1875 26.84375 -73.28125 Z M 53.6875 -73.28125 "/></g></g></g><g fill="#1d3f68" fill-opacity="1"><g transform="translate(237.04244, 137.60479)"><g><path d="M 62.734375 -17.1875 C 64.742188 -15.175781 65.75 -12.785156 65.75 -10.015625 C 65.75 -7.253906 64.742188 -4.867188 62.734375 -2.859375 C 60.722656 -1.054688 58.359375 -0.0820312 55.640625 0.0625 C 52.929688 0.21875 50.519531 -0.753906 48.40625 -2.859375 L 25.640625 -25.484375 L 25.640625 -10.109375 C 25.640625 -7.492188 24.632812 -5.15625 22.625 -3.09375 C 20.613281 -1.03125 18.25 0 15.53125 0 C 12.914062 0 10.550781 -0.976562 8.4375 -2.9375 C 6.332031 -4.894531 5.28125 -7.285156 5.28125 -10.109375 L 5.28125 -86.25 C 5.28125 -88.863281 6.285156 -91.203125 8.296875 -93.265625 C 10.304688 -95.328125 12.71875 -96.359375 15.53125 -96.359375 C 18.34375 -96.359375 20.726562 -95.378906 22.6875 -93.421875 C 24.65625 -91.460938 25.640625 -89.070312 25.640625 -86.25 L 25.640625 -48.40625 L 48.40625 -71.171875 C 50.414062 -73.179688 52.773438 -74.160156 55.484375 -74.109375 C 58.203125 -74.066406 60.617188 -73.085938 62.734375 -71.171875 C 64.742188 -69.160156 65.75 -66.769531 65.75 -64 C 65.75 -61.238281 64.742188 -58.851562 62.734375 -56.84375 L 42.828125 -36.9375 Z M 62.734375 -17.1875 "/></g></g></g><g fill="#1d3f68" fill-opacity="1"><g transform="translate(304.594047, 137.60479)"><g><path d="M 40.109375 -72.984375 C 44.929688 -72.984375 49.554688 -71.976562 53.984375 -69.96875 C 58.410156 -67.957031 62.304688 -65.265625 65.671875 -61.890625 C 69.035156 -58.523438 71.722656 -54.65625 73.734375 -50.28125 C 75.742188 -45.914062 76.75 -41.320312 76.75 -36.5 C 76.75 -33.882812 75.769531 -31.820312 73.8125 -30.3125 C 71.851562 -28.800781 69.414062 -28.097656 66.5 -28.203125 L 26.390625 -28.203125 C 29.703125 -22.472656 34.273438 -19.609375 40.109375 -19.609375 C 41.722656 -19.609375 43.082031 -19.757812 44.1875 -20.0625 C 45.289062 -20.363281 46.269531 -20.710938 47.125 -21.109375 C 47.976562 -21.515625 48.832031 -21.867188 49.6875 -22.171875 C 50.539062 -22.472656 51.519531 -22.625 52.625 -22.625 C 54.738281 -22.519531 56.570312 -21.914062 58.125 -20.8125 C 59.6875 -19.707031 60.84375 -18.320312 61.59375 -16.65625 C 62.351562 -15 62.609375 -13.210938 62.359375 -11.296875 C 62.109375 -9.390625 61.226562 -7.632812 59.71875 -6.03125 C 57 -3.820312 53.976562 -2.289062 50.65625 -1.4375 C 47.34375 -0.582031 43.828125 -0.101562 40.109375 0 C 35.285156 0.195312 30.660156 -0.679688 26.234375 -2.640625 C 21.816406 -4.597656 17.921875 -7.257812 14.546875 -10.625 C 11.179688 -14 8.519531 -17.945312 6.5625 -22.46875 C 4.601562 -26.988281 3.625 -31.664062 3.625 -36.5 C 3.625 -41.21875 4.601562 -45.785156 6.5625 -50.203125 C 8.519531 -54.628906 11.15625 -58.523438 14.46875 -61.890625 C 17.789062 -65.265625 21.660156 -67.957031 26.078125 -69.96875 C 30.503906 -71.976562 35.179688 -72.984375 40.109375 -72.984375 Z M 53.828125 -44.9375 C 52.117188 -48.050781 50.109375 -50.234375 47.796875 -51.484375 C 45.484375 -52.742188 42.921875 -53.375 40.109375 -53.375 C 37.191406 -53.375 34.601562 -52.742188 32.34375 -51.484375 C 30.082031 -50.234375 28.097656 -48.050781 26.390625 -44.9375 Z M 36.046875 -94.6875 C 36.046875 -91.875 35.039062 -89.460938 33.03125 -87.453125 C 31.019531 -85.441406 28.554688 -84.4375 25.640625 -84.4375 C 22.828125 -84.4375 20.4375 -85.441406 18.46875 -87.453125 C 16.507812 -89.460938 15.53125 -91.875 15.53125 -94.6875 C 15.53125 -97.507812 16.507812 -99.925781 18.46875 -101.9375 C 20.4375 -103.945312 22.828125 -104.953125 25.640625 -104.953125 C 28.554688 -104.953125 31.019531 -103.945312 33.03125 -101.9375 C 35.039062 -99.925781 36.046875 -97.507812 36.046875 -94.6875 Z M 65.140625 -94.6875 C 65.140625 -91.875 64.132812 -89.460938 62.125 -87.453125 C 60.113281 -85.441406 57.648438 -84.4375 54.734375 -84.4375 C 51.921875 -84.4375 49.535156 -85.441406 47.578125 -87.453125 C 45.617188 -89.460938 44.640625 -91.875 44.640625 -94.6875 C 44.640625 -97.507812 45.617188 -99.925781 47.578125 -101.9375 C 49.535156 -103.945312 51.921875 -104.953125 54.734375 -104.953125 C 57.648438 -104.953125 60.113281 -103.945312 62.125 -101.9375 C 64.132812 -99.925781 65.140625 -97.507812 65.140625 -94.6875 Z M 65.140625 -94.6875 "/></g></g></g></g></g><g transform="matrix(1, 0, 0, 1, 439, 132)"><g clip-path="url(#1e47e6bf08)"><g fill="#ff0000" fill-opacity="1"><g transform="translate(1.11443, 37.251636)"><g><path d="M 7.375 -24.515625 L 12.921875 -6.859375 L 18.421875 -24.515625 L 25.65625 -24.515625 L 17.28125 0 L 8.515625 0 L 0.140625 -24.515625 Z M 7.375 -24.515625 "/></g></g></g><g fill="#ff0000" fill-opacity="1"><g transform="translate(30.537523, 37.251636)"><g><path d="M 20.53125 -10.078125 C 20.53125 -9.585938 20.472656 -9.054688 20.359375 -8.484375 L 7.515625 -8.484375 C 7.628906 -6.285156 8.585938 -5.1875 10.390625 -5.1875 C 11.054688 -5.1875 11.609375 -5.347656 12.046875 -5.671875 C 12.484375 -5.992188 12.785156 -6.421875 12.953125 -6.953125 L 20.15625 -6.953125 C 19.894531 -5.597656 19.328125 -4.367188 18.453125 -3.265625 C 17.578125 -2.171875 16.46875 -1.3125 15.125 -0.6875 C 13.789062 -0.0625 12.328125 0.25 10.734375 0.25 C 8.796875 0.25 7.082031 -0.144531 5.59375 -0.9375 C 4.101562 -1.738281 2.941406 -2.894531 2.109375 -4.40625 C 1.273438 -5.925781 0.859375 -7.703125 0.859375 -9.734375 C 0.859375 -11.765625 1.273438 -13.53125 2.109375 -15.03125 C 2.941406 -16.53125 4.109375 -17.675781 5.609375 -18.46875 C 7.109375 -19.269531 8.816406 -19.671875 10.734375 -19.671875 C 12.671875 -19.671875 14.378906 -19.273438 15.859375 -18.484375 C 17.335938 -17.703125 18.484375 -16.582031 19.296875 -15.125 C 20.117188 -13.675781 20.53125 -11.992188 20.53125 -10.078125 Z M 13.609375 -11.328125 C 13.628906 -12.316406 13.363281 -13.0625 12.8125 -13.5625 C 12.257812 -14.070312 11.566406 -14.328125 10.734375 -14.328125 C 9.835938 -14.328125 9.101562 -14.070312 8.53125 -13.5625 C 7.96875 -13.0625 7.640625 -12.316406 7.546875 -11.328125 Z M 13.609375 -11.328125 "/></g></g></g><g fill="#ff0000" fill-opacity="1"><g transform="translate(55.564691, 37.251636)"><g><path d="M 13.4375 -5.8125 L 13.4375 0 L 10.625 0 C 8.25 0 6.390625 -0.585938 5.046875 -1.765625 C 3.710938 -2.941406 3.046875 -4.894531 3.046875 -7.625 L 3.046875 -13.75 L 0.546875 -13.75 L 0.546875 -19.421875 L 3.046875 -19.421875 L 3.046875 -24.140625 L 9.875 -24.140625 L 9.875 -19.421875 L 13.359375 -19.421875 L 13.359375 -13.75 L 9.875 -13.75 L 9.875 -7.484375 C 9.875 -6.878906 10.003906 -6.445312 10.265625 -6.1875 C 10.535156 -5.9375 10.976562 -5.8125 11.59375 -5.8125 Z M 13.4375 -5.8125 "/></g></g></g><g fill="#ff0000" fill-opacity="1"><g transform="translate(73.876866, 37.251636)"><g/></g></g><g fill="#ff0000" fill-opacity="1"><g transform="translate(83.916416, 37.251636)"><g><path d="M 13.1875 -24.75 C 15.289062 -24.75 17.164062 -24.363281 18.8125 -23.59375 C 20.46875 -22.820312 21.8125 -21.722656 22.84375 -20.296875 C 23.882812 -18.878906 24.59375 -17.238281 24.96875 -15.375 L 17.796875 -15.375 C 17.398438 -16.34375 16.785156 -17.097656 15.953125 -17.640625 C 15.128906 -18.179688 14.175781 -18.453125 13.09375 -18.453125 C 11.59375 -18.453125 10.378906 -17.890625 9.453125 -16.765625 C 8.523438 -15.648438 8.0625 -14.160156 8.0625 -12.296875 C 8.0625 -10.421875 8.523438 -8.914062 9.453125 -7.78125 C 10.378906 -6.65625 11.59375 -6.09375 13.09375 -6.09375 C 14.175781 -6.09375 15.128906 -6.367188 15.953125 -6.921875 C 16.785156 -7.472656 17.398438 -8.234375 17.796875 -9.203125 L 24.96875 -9.203125 C 24.414062 -6.347656 23.101562 -4.070312 21.03125 -2.375 C 18.96875 -0.675781 16.351562 0.171875 13.1875 0.171875 C 10.769531 0.171875 8.65625 -0.351562 6.84375 -1.40625 C 5.03125 -2.457031 3.628906 -3.925781 2.640625 -5.8125 C 1.660156 -7.707031 1.171875 -9.867188 1.171875 -12.296875 C 1.171875 -14.710938 1.660156 -16.867188 2.640625 -18.765625 C 3.628906 -20.660156 5.03125 -22.128906 6.84375 -23.171875 C 8.65625 -24.222656 10.769531 -24.75 13.1875 -24.75 Z M 13.1875 -24.75 "/></g></g></g><g fill="#ff0000" fill-opacity="1"><g transform="translate(113.685645, 37.251636)"><g><path d="M 20.53125 -10.078125 C 20.53125 -9.585938 20.472656 -9.054688 20.359375 -8.484375 L 7.515625 -8.484375 C 7.628906 -6.285156 8.585938 -5.1875 10.390625 -5.1875 C 11.054688 -5.1875 11.609375 -5.347656 12.046875 -5.671875 C 12.484375 -5.992188 12.785156 -6.421875 12.953125 -6.953125 L 20.15625 -6.953125 C 19.894531 -5.597656 19.328125 -4.367188 18.453125 -3.265625 C 17.578125 -2.171875 16.46875 -1.3125 15.125 -0.6875 C 13.789062 -0.0625 12.328125 0.25 10.734375 0.25 C 8.796875 0.25 7.082031 -0.144531 5.59375 -0.9375 C 4.101562 -1.738281 2.941406 -2.894531 2.109375 -4.40625 C 1.273438 -5.925781 0.859375 -7.703125 0.859375 -9.734375 C 0.859375 -11.765625 1.273438 -13.53125 2.109375 -15.03125 C 2.941406 -16.53125 4.109375 -17.675781 5.609375 -18.46875 C 7.109375 -19.269531 8.816406 -19.671875 10.734375 -19.671875 C 12.671875 -19.671875 14.378906 -19.273438 15.859375 -18.484375 C 17.335938 -17.703125 18.484375 -16.582031 19.296875 -15.125 C 20.117188 -13.675781 20.53125 -11.992188 20.53125 -10.078125 Z M 13.609375 -11.328125 C 13.628906 -12.316406 13.363281 -13.0625 12.8125 -13.5625 C 12.257812 -14.070312 11.566406 -14.328125 10.734375 -14.328125 C 9.835938 -14.328125 9.101562 -14.070312 8.53125 -13.5625 C 7.96875 -13.0625 7.640625 -12.316406 7.546875 -11.328125 Z M 13.609375 -11.328125 "/></g></g></g><g fill="#ff0000" fill-opacity="1"><g transform="translate(138.712813, 37.251636)"><g><path d="M 14.859375 -19.59375 C 17.097656 -19.59375 18.847656 -18.847656 20.109375 -17.359375 C 21.378906 -15.867188 22.015625 -13.84375 22.015625 -11.28125 L 22.015625 0 L 15.265625 0 L 15.265625 -10.421875 C 15.265625 -11.554688 14.96875 -12.4375 14.375 -13.0625 C 13.789062 -13.695312 13.003906 -14.015625 12.015625 -14.015625 C 10.992188 -14.015625 10.179688 -13.6875 9.578125 -13.03125 C 8.984375 -12.375 8.6875 -11.46875 8.6875 -10.3125 L 8.6875 0 L 1.875 0 L 1.875 -19.421875 L 8.6875 -19.421875 L 8.6875 -16.171875 C 9.238281 -17.210938 10.046875 -18.039062 11.109375 -18.65625 C 12.171875 -19.28125 13.421875 -19.59375 14.859375 -19.59375 Z M 14.859375 -19.59375 "/></g></g></g><g fill="#ff0000" fill-opacity="1"><g transform="translate(166.12831, 37.251636)"><g><path d="M 13.4375 -5.8125 L 13.4375 0 L 10.625 0 C 8.25 0 6.390625 -0.585938 5.046875 -1.765625 C 3.710938 -2.941406 3.046875 -4.894531 3.046875 -7.625 L 3.046875 -13.75 L 0.546875 -13.75 L 0.546875 -19.421875 L 3.046875 -19.421875 L 3.046875 -24.140625 L 9.875 -24.140625 L 9.875 -19.421875 L 13.359375 -19.421875 L 13.359375 -13.75 L 9.875 -13.75 L 9.875 -7.484375 C 9.875 -6.878906 10.003906 -6.445312 10.265625 -6.1875 C 10.535156 -5.9375 10.976562 -5.8125 11.59375 -5.8125 Z M 13.4375 -5.8125 "/></g></g></g><g fill="#ff0000" fill-opacity="1"><g transform="translate(184.440485, 37.251636)"><g><path d="M 20.53125 -10.078125 C 20.53125 -9.585938 20.472656 -9.054688 20.359375 -8.484375 L 7.515625 -8.484375 C 7.628906 -6.285156 8.585938 -5.1875 10.390625 -5.1875 C 11.054688 -5.1875 11.609375 -5.347656 12.046875 -5.671875 C 12.484375 -5.992188 12.785156 -6.421875 12.953125 -6.953125 L 20.15625 -6.953125 C 19.894531 -5.597656 19.328125 -4.367188 18.453125 -3.265625 C 17.578125 -2.171875 16.46875 -1.3125 15.125 -0.6875 C 13.789062 -0.0625 12.328125 0.25 10.734375 0.25 C 8.796875 0.25 7.082031 -0.144531 5.59375 -0.9375 C 4.101562 -1.738281 2.941406 -2.894531 2.109375 -4.40625 C 1.273438 -5.925781 0.859375 -7.703125 0.859375 -9.734375 C 0.859375 -11.765625 1.273438 -13.53125 2.109375 -15.03125 C 2.941406 -16.53125 4.109375 -17.675781 5.609375 -18.46875 C 7.109375 -19.269531 8.816406 -19.671875 10.734375 -19.671875 C 12.671875 -19.671875 14.378906 -19.273438 15.859375 -18.484375 C 17.335938 -17.703125 18.484375 -16.582031 19.296875 -15.125 C 20.117188 -13.675781 20.53125 -11.992188 20.53125 -10.078125 Z M 13.609375 -11.328125 C 13.628906 -12.316406 13.363281 -13.0625 12.8125 -13.5625 C 12.257812 -14.070312 11.566406 -14.328125 10.734375 -14.328125 C 9.835938 -14.328125 9.101562 -14.070312 8.53125 -13.5625 C 7.96875 -13.0625 7.640625 -12.316406 7.546875 -11.328125 Z M 13.609375 -11.328125 "/></g></g></g><g fill="#ff0000" fill-opacity="1"><g transform="translate(209.467653, 37.251636)"><g><path d="M 8.6875 -15.78125 C 9.445312 -16.9375 10.40625 -17.859375 11.5625 -18.546875 C 12.71875 -19.242188 13.941406 -19.59375 15.234375 -19.59375 L 15.234375 -12.328125 L 13.265625 -12.328125 C 11.734375 -12.328125 10.585938 -12.03125 9.828125 -11.4375 C 9.066406 -10.851562 8.6875 -9.832031 8.6875 -8.375 L 8.6875 0 L 1.875 0 L 1.875 -19.421875 L 8.6875 -19.421875 Z M 8.6875 -15.78125 "/></g></g></g></g></g></svg>