<svg width="512" height="512" viewBox="130 0 230 225" xmlns="http://www.w3.org/2000/svg" xmlns:xlink="http://www.w3.org/1999/xlink">
  <style>
    /* --- CEREBRO DEL FAVICON --- */
    
    /* 1. MODO OSCURO (Automático) */
    @media (prefers-color-scheme: dark) {
      /* Todo lo que sea AZUL (#1d3f68) se vuelve BLANCO */
      path[fill="#1d3f68"], g[fill="#1d3f68"] {
        fill: #ffffff !important;
      }
      /* Todo lo que sea AZUL con opacidad, también blanco */
      path[fill="#1d3f68"][fill-opacity="1"], g[fill="#1d3f68"][fill-opacity="1"] {
        fill: #ffffff !important;
      }
    }
  </style>

  <defs>
    <g/>
    <clipPath id="4736914c75"><path d="M 134.125 6.03125 L 347 6.03125 L 347 219 L 134.125 219 Z M 134.125 6.03125 " clip-rule="nonzero"/></clipPath>
    <clipPath id="6615ccc418"><rect x="0" width="386" y="0" height="178"/></clipPath>
    <clipPath id="1e47e6bf08"><rect x="0" width="230" y="0" height="50"/></clipPath>
  </defs>

  <path fill="#1d3f68" d="M 191.53125 98.09375 C 183.605469 98.09375 177.15625 104.539062 177.15625 112.464844 C 177.15625 120.390625 183.605469 126.839844 191.53125 126.839844 L 217.902344 126.839844 C 221.960938 126.839844 225.25 130.128906 225.25 134.191406 L 225.25 160.558594 C 225.25 168.484375 231.699219 174.933594 239.625 174.933594 C 247.550781 174.933594 254 168.484375 254 160.558594 L 254 134.191406 C 254 130.128906 257.289062 126.839844 261.347656 126.839844 L 287.71875 126.839844 C 295.644531 126.839844 302.089844 120.390625 302.089844 112.464844 C 302.089844 104.539062 295.644531 98.09375 287.71875 98.09375 L 261.347656 98.09375 C 257.289062 98.09375 254 94.800781 254 90.742188 L 254 64.371094 C 254 56.445312 247.550781 50 239.625 50 C 231.699219 50 225.25 56.445312 225.25 64.371094 L 225.25 90.742188 C 225.25 94.800781 221.960938 98.09375 217.902344 98.09375 Z M 239.625 189.632812 C 223.59375 189.632812 210.550781 176.589844 210.550781 160.558594 L 210.550781 141.539062 L 191.53125 141.539062 C 175.5 141.539062 162.457031 128.5 162.457031 112.464844 C 162.457031 96.4375 175.5 83.394531 191.53125 83.394531 L 210.550781 83.394531 L 210.550781 64.371094 C 210.550781 48.339844 223.59375 35.300781 239.625 35.300781 C 255.652344 35.300781 268.695312 48.339844 268.695312 64.371094 L 268.695312 83.394531 L 287.71875 83.394531 C 303.746094 83.394531 316.789062 96.4375 316.789062 112.464844 C 316.789062 128.5 303.746094 141.539062 287.71875 141.539062 L 268.695312 141.539062 L 268.695312 160.558594 C 268.695312 176.589844 255.652344 189.632812 239.625 189.632812 " fill-opacity="1" fill-rule="nonzero"/>

  <g clip-path="url(#4736914c75)">
    <path fill="#1d3f68" d="M 322.378906 40.667969 Z M 320.183594 37.910156 Z M 318.519531 41.492188 C 321.152344 44.800781 320.601562 49.632812 317.292969 52.265625 C 313.984375 54.898438 309.152344 54.347656 306.519531 51.039062 C 303.886719 47.730469 304.4375 42.898438 307.746094 40.265625 C 311.054688 37.632812 315.882812 38.183594 318.519531 41.492188 Z M 336.554688 131.347656 C 329.660156 129.511719 322.582031 133.617188 320.75 140.511719 C 319.90625 143.6875 320.332031 146.898438 321.703125 149.625 C 307.316406 181.136719 275.820312 201.714844 240.535156 201.714844 C 191.324219 201.714844 151.285156 161.679688 151.285156 112.464844 C 151.285156 63.253906 191.324219 23.21875 240.535156 23.21875 C 261.65625 23.21875 282.042969 30.761719 298.042969 44.230469 C 297.503906 48.070312 298.464844 52.113281 301.066406 55.382812 C 306.09375 61.695312 315.320312 62.746094 321.636719 57.71875 C 327.949219 52.695312 328.996094 43.464844 323.972656 37.148438 C 320.527344 32.820312 315.105469 30.96875 310 31.851562 C 290.792969 15.320312 266.113281 6.035156 240.535156 6.035156 C 181.847656 6.035156 134.101562 53.777344 134.101562 112.464844 C 134.101562 171.152344 181.847656 218.898438 240.535156 218.898438 C 282.917969 218.898438 320.707031 193.996094 337.691406 155.949219 C 341.503906 154.542969 344.597656 151.375 345.722656 147.148438 C 347.554688 140.253906 343.449219 133.175781 336.554688 131.347656 " fill-opacity="1" fill-rule="nonzero"/>
  </g>

  <path fill="#1d3f68" d="M 300.402344 54.550781 L 300.367188 54.507812 L 300.402344 54.550781 " fill-opacity="1" fill-rule="nonzero"/>
  <path fill="#1d3f68" d="M 300.820312 55.070312 C 300.664062 54.878906 300.523438 54.703125 300.402344 54.550781 C 300.535156 54.714844 300.675781 54.890625 300.820312 55.070312 " fill-opacity="1" fill-rule="nonzero"/>
  <path fill="#1d3f68" d="M 300.367188 54.507812 C 299.9375 53.964844 299.714844 53.683594 299.644531 53.597656 C 299.730469 53.707031 300.011719 54.058594 300.367188 54.507812 " fill-opacity="1" fill-rule="nonzero"/>
  <path fill="#1d3f68" d="M 302.390625 57.046875 C 302.207031 56.8125 301.800781 56.304688 301.066406 55.382812 C 300.984375 55.277344 300.917969 55.195312 300.84375 55.101562 C 301.457031 55.871094 302.117188 56.707031 302.390625 57.046875 " fill-opacity="1" fill-rule="nonzero"/>
  <path fill="#1d3f68" d="M 302.390625 57.046875 C 302.433594 57.101562 302.464844 57.140625 302.484375 57.167969 C 302.464844 57.140625 302.433594 57.101562 302.390625 57.046875 " fill-opacity="1" fill-rule="nonzero"/>
  <path fill="#1d3f68" d="M 300.84375 55.101562 L 300.820312 55.070312 L 300.84375 55.101562 " fill-opacity="1" fill-rule="nonzero"/>
</svg>